<?xml version="1.0" encoding="utf-8"?>
<!-- Generator: Adobe Illustrator 27.3.1, SVG Export Plug-In . SVG Version: 6.00 Build 0)  -->
<svg version="1.1" xmlns="http://www.w3.org/2000/svg" xmlns:xlink="http://www.w3.org/1999/xlink" x="0px" y="0px"
	 viewBox="0 0 30 30" style="enable-background:new 0 0 30 30;" xml:space="preserve">
<g id="BACKGROUND">
</g>
<g id="ELEMENTS">
	<path d="M15,0.4C6.9,0.4,0.4,6.9,0.4,15c0,8.1,6.5,14.6,14.6,14.6c8.1,0,14.6-6.5,14.6-14.6C29.6,6.9,23.1,0.4,15,0.4z M22.6,13.3
		L22.6,13.3c-0.2,0-0.3,0-0.5,0c-1.6,0-3.2-0.8-4.1-2.2v7.5c0,3.1-2.5,5.6-5.6,5.6c-3.1,0-5.6-2.5-5.6-5.6c0-3.1,2.5-5.6,5.6-5.6
		c0.1,0,0.2,0,0.3,0v2.7c-0.1,0-0.2,0-0.3,0c-1.6,0-2.8,1.3-2.8,2.8s1.3,2.8,2.8,2.8c1.6,0,3-1.2,3-2.8l0-12.8h2.6
		c0.2,2.4,2.1,4.2,4.5,4.4V13.3z"/>
</g>
</svg>
