<?xml version="1.0" encoding="UTF-8"?>
<svg xmlns="http://www.w3.org/2000/svg" version="1.1" viewBox="0 0 16 16">
  <defs>
    <style>
      .cls-1 {
        fill: #00103e;
      }

      .cls-2 {
        fill: #e8412c;
      }

      .cls-3 {
        fill: #fff;
      }

      .cls-4 {
        fill: #666;
      }

      .cls-5 {
        fill: #999;
      }
    </style>
  </defs>
  <!-- Generator: Adobe Illustrator 28.7.1, SVG Export Plug-In . SVG Version: 1.2.0 Build 142)  -->
  <g>
    <g id="Ebene_1">
      <path class="cls-3" d="M1,1h14v14H1V1Z"/>
      <rect class="cls-1" x="1.3" y="1.1" width="13.3" height="13.6"/>
      <path class="cls-5" d="M1,1v14h14V1H1ZM2,2h12v12H2V2Z"/>
      <path class="cls-4" d="M3,3h10v1H3v-1Z"/>
      <path class="cls-3" d="M3,5h3v1h-3v-1Z"/>
      <path class="cls-3" d="M3,7h3v1h-3v-1ZM3,9h3v1h-3v-1ZM3,11h3v1h-3v-1Z"/>
      <g>
        <polygon class="cls-2" points="10.5 7.1 8.4 9.2 11.2 12 13 12 10.2 9.2 12.3 7.1 10.5 7.1"/>
        <polygon class="cls-2" points="7 5.7 8.4 4.3 8.4 9.2 7 10.6 7 5.7"/>
        <polygon class="cls-2" points="8.4 10.6 7 12 7 12 8.4 12 8.4 10.6"/>
      </g>
    </g>
  </g>
</svg>